<svg xmlns="http://www.w3.org/2000/svg" xmlns:v="https://svgstorm.com"
viewBox = "0 0 1024 848"
width="1024"
height="848">
<g fill="#000000" fill-opacity="1.00" stroke="None">
<path d="
M 0.00 848.00 
L 1024.00 848.00
L 1024.00 0.00
L 0.00 0.00
L 0.00 848.00
M 384.00 92.00 
C 404.81 93.42 423.31 103.48 442.00 111.00
C 445.61 112.45 448.06 115.00 451.00 117.00
C 501.37 144.18 544.22 193.24 562.00 247.00
C 570.38 239.14 575.22 226.15 585.00 218.00
C 589.29 212.99 594.41 208.59 599.00 204.00
C 602.74 200.26 606.84 196.87 610.00 195.00
C 638.21 170.89 663.98 154.67 697.70 138.70 C 731.41 122.72 769.35 112.75 806.22 102.22 C 843.10 91.69 895.50 86.31 933.02 97.98 C 970.55 109.64 1002.68 138.22 990.00 180.00
C 988.79 183.97 986.76 188.23 985.00 192.00
C 982.47 197.41 978.94 200.70 975.00 205.00
C 974.29 205.94 973.68 207.10 973.00 208.00
C 970.17 211.75 966.50 215.01 963.00 218.00
C 929.30 246.80 889.53 263.55 848.00 276.00
C 883.66 289.38 928.47 305.22 940.32 347.68 C 952.17 390.14 926.72 433.00 892.30 458.30 C 857.88 483.60 815.06 500.17 772.00 503.00
C 766.56 503.78 760.33 503.52 755.00 503.00
C 726.15 503.00 699.69 496.09 674.00 485.00
C 671.65 483.98 669.59 482.29 667.00 482.00
C 667.00 483.67 667.00 485.33 667.00 487.00
C 673.37 538.71 653.14 595.97 630.08 639.08 C 607.01 682.18 584.28 715.75 552.25 752.25 C 520.21 788.75 463.52 815.18 418.31 790.70 C 373.09 766.21 353.00 713.65 353.00 665.00
C 353.00 661.85 353.71 658.43 354.00 656.00
C 354.67 622.66 369.56 592.12 384.00 563.00
C 310.22 608.19 233.24 656.59 145.00 664.00
C 138.95 664.86 131.98 664.85 126.00 664.00
C 94.90 662.81 61.25 655.49 41.25 628.75 C 21.24 602.01 33.04 561.39 47.25 535.25 C 61.47 509.12 79.50 488.82 99.00 466.00
C 105.31 458.61 112.66 451.27 120.00 445.00
C 128.14 438.04 135.45 430.11 144.00 424.00
C 147.80 420.82 151.12 417.07 155.00 414.00
C 171.37 401.07 187.47 390.37 204.70 378.70 C 221.92 367.02 239.51 356.56 258.23 347.23 C 276.95 337.90 299.54 329.14 317.00 320.00
C 270.52 305.74 204.66 283.59 202.00 225.00
C 201.54 220.21 201.32 214.77 202.00 210.00
C 202.96 184.78 217.93 161.80 234.00 143.00
C 237.66 138.71 241.76 134.62 246.00 131.00
C 276.00 105.36 316.22 91.00 356.00 91.00
C 365.23 90.11 375.09 89.72 384.00 92.00 Z"/>
</g>
<g fill="#808080" fill-opacity="1.00" stroke="None">
<path d="
M 356.00 91.00 
C 365.57 91.00 374.66 91.36 384.00 92.00
C 375.09 89.72 365.23 90.11 356.00 91.00 Z"/>
</g>
<g fill="#FFFFFF" fill-opacity="1.00" stroke="None">
<path d="
M 246.00 131.00 
C 242.08 134.92 237.87 139.13 234.00 143.00
C 217.93 161.80 202.96 184.78 202.00 210.00
C 201.81 214.98 202.00 220.01 202.00 225.00
C 204.66 283.59 270.52 305.74 317.00 320.00
C 299.54 329.14 276.95 337.90 258.23 347.23 C 239.51 356.56 221.92 367.02 204.70 378.70 C 187.47 390.37 171.37 401.07 155.00 414.00
C 151.58 417.42 148.01 421.14 144.00 424.00
C 135.45 430.11 128.14 438.04 120.00 445.00
C 113.08 451.92 105.87 459.13 99.00 466.00
C 79.50 488.82 61.47 509.12 47.25 535.25 C 33.04 561.39 21.24 602.01 41.25 628.75 C 61.25 655.49 94.90 662.81 126.00 664.00
C 132.27 664.24 138.73 664.24 145.00 664.00
C 233.24 656.59 310.22 608.19 384.00 563.00
C 369.56 592.12 354.67 622.66 354.00 656.00
C 353.94 659.06 353.23 662.66 353.00 665.00
C 353.00 713.65 373.09 766.21 418.31 790.70 C 463.52 815.18 520.21 788.75 552.25 752.25 C 584.28 715.75 607.01 682.18 630.08 639.08 C 653.14 595.97 673.37 538.71 667.00 487.00
C 666.83 485.65 665.08 483.04 666.00 481.00
C 668.92 481.13 672.44 482.44 674.00 485.00
C 699.69 496.09 726.15 503.00 755.00 503.00
C 760.65 503.00 766.35 503.22 772.00 503.00
C 815.06 500.17 857.88 483.60 892.30 458.30 C 926.72 433.00 952.17 390.14 940.32 347.68 C 928.47 305.22 883.66 289.38 848.00 276.00
C 889.53 263.55 929.30 246.80 963.00 218.00
C 966.19 214.81 970.02 211.26 973.00 208.00
C 973.68 207.10 974.29 205.94 975.00 205.00
C 978.14 200.84 980.76 197.48 983.00 193.00
C 985.14 188.71 988.24 184.13 990.00 180.00
C 1002.68 138.22 970.55 109.64 933.02 97.98 C 895.50 86.31 843.10 91.69 806.22 102.22 C 769.35 112.75 731.41 122.72 697.70 138.70 C 663.98 154.67 638.21 170.89 610.00 195.00
C 606.39 198.09 602.38 200.87 599.00 204.00
C 594.32 208.33 589.48 213.52 585.00 218.00
C 575.22 226.15 570.38 239.14 562.00 247.00
C 544.22 193.24 501.37 144.18 451.00 117.00
C 447.90 115.33 444.82 112.44 442.00 111.00
C 423.31 103.48 404.81 93.42 384.00 92.00
C 374.66 91.36 365.57 91.00 356.00 91.00
C 316.22 91.00 276.00 105.36 246.00 131.00
M 971.00 155.00 
C 972.00 159.30 971.98 163.77 971.00 168.00
C 965.73 190.66 947.65 205.39 928.92 218.92 C 910.19 232.44 888.46 242.89 865.93 249.93 C 843.39 256.96 817.53 267.02 793.93 271.93 C 770.32 276.83 737.41 271.85 723.00 295.00
C 747.62 305.12 774.49 292.65 799.00 289.00
C 802.99 288.35 807.12 288.53 811.00 289.00
C 852.26 289.82 911.93 312.56 922.00 358.00
C 922.45 360.04 922.95 362.37 923.00 365.00
C 923.44 368.63 923.52 372.41 923.00 376.00
C 922.92 377.93 922.23 379.71 922.00 381.00
C 920.81 412.12 892.69 436.85 867.77 453.77 C 842.85 470.69 804.02 484.66 773.00 486.00
C 771.67 486.06 770.33 486.00 769.00 486.00
C 762.76 486.85 755.21 487.36 749.00 486.00
C 748.00 486.00 747.00 486.00 746.00 486.00
C 732.24 486.06 717.71 480.66 704.78 478.22 C 691.85 475.78 682.14 468.46 670.75 463.25 C 659.37 458.04 655.01 444.03 651.23 433.77 C 647.45 423.51 633.16 406.23 629.00 423.00
C 628.67 425.69 628.64 429.31 629.00 432.00
C 632.14 444.10 640.29 451.25 645.77 462.23 C 651.26 473.21 653.00 489.41 653.00 502.00
C 653.40 506.09 653.39 510.98 653.00 515.00
C 653.00 556.46 634.49 601.91 614.70 636.70 C 594.90 671.48 575.94 702.65 550.00 733.00
C 545.16 738.67 539.61 744.20 534.00 749.00
C 516.03 764.35 503.00 774.12 479.99 780.99 C 456.99 787.86 432.27 782.33 413.00 768.00
C 408.27 764.48 403.61 759.57 400.00 755.00
C 384.80 735.74 371.00 709.06 371.00 684.00
C 370.39 677.71 370.40 670.23 371.00 664.00
C 371.00 643.97 378.22 622.23 384.32 604.32 C 390.42 586.42 401.27 571.58 409.75 555.75 C 418.24 539.92 431.63 529.03 442.75 515.75 C 453.88 502.47 473.49 492.66 477.00 476.00
C 477.50 473.64 477.46 471.37 478.00 469.00
C 475.33 469.00 472.67 469.00 470.00 469.00
C 439.94 476.45 426.90 510.41 402.30 528.30 C 377.71 546.20 353.93 564.92 325.92 578.92 C 297.92 592.93 273.29 611.50 242.77 622.77 C 212.26 634.04 176.36 649.00 142.00 649.00
C 135.71 649.61 128.23 649.60 122.00 649.00
C 93.60 649.00 54.97 637.20 46.22 606.78 C 37.48 576.35 55.29 542.57 72.25 519.25 C 89.22 495.94 105.76 475.00 128.00 456.00
C 130.99 453.01 133.59 449.53 137.00 447.00
C 142.33 443.04 148.31 438.69 153.00 434.00
C 156.77 430.23 160.60 427.02 165.00 424.00
C 242.97 370.52 324.15 313.74 424.00 317.00
C 422.21 311.87 416.41 308.06 412.00 306.00
C 409.17 305.08 406.09 305.12 403.00 305.00
C 397.35 304.78 391.65 305.00 386.00 305.00
C 376.61 305.00 366.80 306.62 358.00 309.00 C 349.19 311.38 339.73 309.21 330.93 307.07 C 322.12 304.93 314.11 301.92 305.78 299.22 C 297.45 296.52 289.73 293.52 281.92 290.08 C 274.11 286.63 266.87 283.75 259.75 279.25 C 252.64 274.74 245.80 272.52 239.75 266.25 C 233.70 259.98 228.62 256.03 224.70 248.30 C 220.77 240.58 216.99 232.28 217.00 223.00 C 217.01 213.72 217.69 202.09 220.93 193.93 C 224.16 185.76 226.89 179.43 231.30 172.30 C 235.72 165.18 239.78 159.56 245.25 153.25 C 250.72 146.95 256.15 142.54 262.75 137.75 C 269.34 132.95 275.41 128.68 283.08 125.08 C 290.74 121.48 297.67 117.68 306.22 115.22 C 314.78 112.77 324.01 111.31 333.07 109.07 C 342.14 106.83 354.22 107.29 364.00 107.00 C 373.78 106.71 384.77 108.34 393.68 110.32 C 402.59 112.31 410.33 115.25 418.23 118.77 C 426.13 122.29 432.74 125.05 440.08 128.92 C 447.41 132.80 453.52 137.34 460.25 141.75 C 466.98 146.16 473.00 150.78 479.25 155.75 C 485.50 160.72 491.54 164.98 497.25 170.75 C 502.96 176.52 508.26 181.50 513.25 187.75 C 518.25 193.99 523.72 198.98 528.25 205.75 C 532.79 212.51 536.71 218.28 541.75 225.25 C 546.80 232.21 547.94 238.78 553.77 246.23 C 559.60 253.68 556.48 262.60 559.78 271.22 C 563.08 279.85 568.20 263.43 570.92 257.92 C 573.65 252.42 579.51 243.35 583.77 237.77 C 588.03 232.19 594.33 226.00 599.75 220.75 C 605.17 215.51 611.84 210.74 617.75 205.75 C 623.65 200.76 630.00 196.07 636.25 191.25 C 642.49 186.42 649.36 182.43 656.08 178.08 C 662.80 173.74 669.53 169.59 676.70 165.70 C 683.87 161.81 691.62 158.71 699.08 155.08 C 706.53 151.44 714.44 148.32 722.22 145.22 C 730.00 142.12 737.83 139.87 746.02 137.02 C 754.22 134.18 762.62 131.47 771.22 129.22 C 779.83 126.97 788.87 124.86 797.67 122.67 C 806.47 120.48 814.82 117.76 824.02 116.02 C 833.23 114.28 842.66 112.38 852.22 111.22 C 861.78 110.06 874.20 109.88 884.00 110.00 C 893.80 110.12 904.28 111.85 913.22 113.78 C 922.16 115.71 930.09 118.39 938.03 121.98 C 945.96 125.56 951.25 129.84 958.25 134.75 C 965.24 139.67 969.19 147.23 971.00 155.00 Z"/>
</g>
<g fill="#000000" fill-opacity="1.00" stroke="None">
<path d="
M 386.00 305.00 
C 385.96 305.00 386.00 304.00 386.00 304.00
C 390.46 299.39 407.39 303.80 412.00 306.00
C 416.41 308.06 422.21 311.87 424.00 317.00
C 324.15 313.74 242.97 370.52 165.00 424.00
C 161.09 427.37 157.19 430.88 153.00 434.00
C 148.31 438.69 142.33 443.04 137.00 447.00
C 133.91 449.69 131.13 453.33 128.00 456.00
C 105.76 475.00 89.22 495.94 72.25 519.25 C 55.29 542.57 37.48 576.35 46.22 606.78 C 54.97 637.20 93.60 649.00 122.00 649.00
C 128.67 649.00 135.33 649.00 142.00 649.00
C 176.36 649.00 212.26 634.04 242.77 622.77 C 273.29 611.50 297.92 592.93 325.92 578.92 C 353.93 564.92 377.71 546.20 402.30 528.30 C 426.90 510.41 439.94 476.45 470.00 469.00
C 472.47 468.39 475.87 467.39 479.00 468.00
C 479.13 470.79 478.88 474.12 477.00 476.00
C 473.49 492.66 453.88 502.47 442.75 515.75 C 431.63 529.03 418.24 539.92 409.75 555.75 C 401.27 571.58 390.42 586.42 384.32 604.32 C 378.22 622.23 371.00 643.97 371.00 664.00
C 371.00 670.67 371.00 677.33 371.00 684.00
C 371.00 709.06 384.80 735.74 400.00 755.00
C 403.87 759.18 408.77 764.31 413.00 768.00
C 432.27 782.33 456.99 787.86 479.99 780.99 C 503.00 774.12 516.03 764.35 534.00 749.00
C 539.25 743.75 544.80 738.20 550.00 733.00
C 575.94 702.65 594.90 671.48 614.70 636.70 C 634.49 601.91 653.00 556.46 653.00 515.00
C 653.00 510.67 653.00 506.33 653.00 502.00
C 653.00 489.41 651.26 473.21 645.77 462.23 C 640.29 451.25 632.14 444.10 629.00 432.00
C 628.15 428.71 628.20 426.23 629.00 423.00
C 633.16 406.23 647.45 423.51 651.23 433.77 C 655.01 444.03 659.37 458.04 670.75 463.25 C 682.14 468.46 691.85 475.78 704.78 478.22 C 717.71 480.66 732.24 486.06 746.00 486.00
C 754.28 485.65 764.81 485.76 773.00 486.00
C 804.02 484.66 842.85 470.69 867.77 453.77 C 892.69 436.85 920.81 412.12 922.00 381.00
C 922.28 373.58 922.76 365.38 922.00 358.00
C 911.93 312.56 852.26 289.82 811.00 289.00
C 807.04 288.92 802.96 288.79 799.00 289.00
C 774.49 292.65 747.62 305.12 723.00 295.00
C 737.41 271.85 770.32 276.83 793.93 271.93 C 817.53 267.02 843.39 256.96 865.93 249.93 C 888.46 242.89 910.19 232.44 928.92 218.92 C 947.65 205.39 965.73 190.66 971.00 168.00
C 971.45 164.01 971.44 158.99 971.00 155.00
C 969.19 147.23 965.24 139.67 958.25 134.75 C 951.25 129.84 945.96 125.56 938.03 121.98 C 930.09 118.39 922.16 115.71 913.22 113.78 C 904.28 111.85 893.80 110.12 884.00 110.00 C 874.20 109.88 861.78 110.06 852.22 111.22 C 842.66 112.38 833.23 114.28 824.02 116.02 C 814.82 117.76 806.47 120.48 797.67 122.67 C 788.87 124.86 779.83 126.97 771.22 129.22 C 762.62 131.47 754.22 134.18 746.02 137.02 C 737.83 139.87 730.00 142.12 722.22 145.22 C 714.44 148.32 706.53 151.44 699.08 155.08 C 691.62 158.71 683.87 161.81 676.70 165.70 C 669.53 169.59 662.80 173.74 656.08 178.08 C 649.36 182.43 642.49 186.42 636.25 191.25 C 630.00 196.07 623.65 200.76 617.75 205.75 C 611.84 210.74 605.17 215.51 599.75 220.75 C 594.33 226.00 588.03 232.19 583.77 237.77 C 579.51 243.35 573.65 252.42 570.92 257.92 C 568.20 263.43 563.08 279.85 559.78 271.22 C 556.48 262.60 559.60 253.68 553.77 246.23 C 547.94 238.78 546.80 232.21 541.75 225.25 C 536.71 218.28 532.79 212.51 528.25 205.75 C 523.72 198.98 518.25 193.99 513.25 187.75 C 508.26 181.50 502.96 176.52 497.25 170.75 C 491.54 164.98 485.50 160.72 479.25 155.75 C 473.00 150.78 466.98 146.16 460.25 141.75 C 453.52 137.34 447.41 132.80 440.08 128.92 C 432.74 125.05 426.13 122.29 418.23 118.77 C 410.33 115.25 402.59 112.31 393.68 110.32 C 384.77 108.34 373.78 106.71 364.00 107.00 C 354.22 107.29 342.14 106.83 333.07 109.07 C 324.01 111.31 314.78 112.77 306.22 115.22 C 297.67 117.68 290.74 121.48 283.08 125.08 C 275.41 128.68 269.34 132.95 262.75 137.75 C 256.15 142.54 250.72 146.95 245.25 153.25 C 239.78 159.56 235.72 165.18 231.30 172.30 C 226.89 179.43 224.16 185.76 220.93 193.93 C 217.69 202.09 217.01 213.72 217.00 223.00 C 216.99 232.28 220.77 240.58 224.70 248.30 C 228.62 256.03 233.70 259.98 239.75 266.25 C 245.80 272.52 252.64 274.74 259.75 279.25 C 266.87 283.75 274.11 286.63 281.92 290.08 C 289.73 293.52 297.45 296.52 305.78 299.22 C 314.11 301.92 322.12 304.93 330.93 307.07 C 339.73 309.21 349.19 311.38 358.00 309.00 C 366.80 306.62 376.61 305.00 386.00 305.00
M 651.00 264.00 
C 650.60 264.20 650.00 264.00 650.00 264.00
C 641.70 273.71 633.23 283.37 625.00 293.00
C 623.48 294.78 621.27 296.67 621.00 299.00
C 623.11 299.40 625.66 300.38 627.00 302.00
C 640.90 308.00 649.82 319.63 653.00 334.00
C 653.96 338.35 653.69 342.76 653.00 347.00
C 652.85 349.82 651.96 352.28 652.00 355.00
C 653.00 357.38 658.52 357.70 661.00 358.00
C 679.89 358.38 698.07 362.91 716.00 367.00
C 713.90 369.08 709.85 367.50 707.00 368.00
C 703.90 368.00 700.36 367.23 698.00 367.00
C 692.33 367.00 686.67 367.00 681.00 367.00
C 678.00 367.00 675.00 367.00 672.00 367.00
C 667.59 367.00 662.66 366.35 659.00 366.00
C 649.21 366.00 644.18 368.04 640.08 376.08 C 635.98 384.12 630.14 384.99 624.75 390.75 C 619.37 396.52 612.82 398.17 606.31 402.31 C 599.79 406.44 592.03 407.61 584.93 410.93 C 577.82 414.25 567.52 414.05 560.00 416.00 C 552.47 417.95 556.18 432.15 553.00 439.00 C 549.82 445.86 548.84 454.88 546.22 462.22 C 543.61 469.57 541.72 478.29 540.00 486.00
C 540.49 463.54 545.21 439.08 548.00 416.00
C 536.04 418.16 524.38 411.36 514.00 412.00
C 511.42 413.31 508.87 418.75 506.25 420.25 C 503.62 421.75 499.52 428.75 500.00 424.00
C 500.65 417.50 507.32 413.00 509.00 407.00
C 498.42 402.49 490.31 392.73 487.00 382.00
C 464.57 387.69 442.28 393.85 420.00 400.00
C 417.55 400.87 415.29 403.91 412.00 403.00
C 414.29 398.79 419.27 398.04 423.00 396.00
C 429.22 393.12 435.43 390.72 441.68 387.68 C 447.93 384.63 454.74 382.91 461.02 380.02 C 467.31 377.14 478.07 377.19 484.00 375.00 C 489.93 372.81 485.48 358.50 489.78 353.78 C 494.07 349.05 495.71 340.75 500.00 336.00
C 488.58 330.23 474.26 326.47 466.00 317.00
C 478.09 318.59 491.66 322.91 502.70 327.31 C 513.73 331.70 519.99 313.42 531.00 312.00
C 524.95 298.76 514.58 287.12 506.00 275.00
C 504.62 273.51 501.62 272.59 502.00 270.00
C 503.85 270.97 506.24 271.79 507.00 274.00
C 512.22 278.88 516.76 281.97 521.75 287.25 C 526.74 292.53 531.00 295.33 534.77 302.23 C 538.54 309.13 547.29 303.84 554.00 302.00
C 555.64 301.55 558.02 300.54 560.00 300.00
C 566.59 298.19 571.81 295.57 579.00 295.00
C 585.33 293.78 592.78 294.25 599.00 295.00
C 604.21 295.10 608.73 296.21 614.00 296.00
C 622.36 280.23 638.83 269.10 653.00 259.00
C 653.62 258.46 654.39 257.55 655.00 257.00
C 656.42 255.72 657.61 253.72 660.00 254.00
C 658.73 258.13 654.18 261.20 651.00 264.00 Z"/>
</g>
<g fill="#717171" fill-opacity="1.00" stroke="None">
<path d="
M 451.00 117.00 
C 448.06 115.00 445.61 112.45 442.00 111.00
C 444.82 112.44 447.90 115.33 451.00 117.00 Z"/>
</g>
<g fill="#707070" fill-opacity="1.00" stroke="None">
<path d="
M 234.00 143.00 
C 237.87 139.13 242.08 134.92 246.00 131.00
C 241.76 134.62 237.66 138.71 234.00 143.00 Z"/>
</g>
<g fill="#7F7F7F" fill-opacity="1.00" stroke="None">
<path d="
M 971.00 168.00 
C 971.98 163.77 972.00 159.30 971.00 155.00
C 971.44 158.99 971.45 164.01 971.00 168.00 Z"/>
</g>
<g fill="#676767" fill-opacity="1.00" stroke="None">
<path d="
M 983.00 193.00 
C 983.36 192.54 984.72 192.37 985.00 192.00
C 986.76 188.23 988.79 183.97 990.00 180.00
C 988.24 184.13 985.14 188.71 983.00 193.00 Z"/>
</g>
<g fill="#999999" fill-opacity="1.00" stroke="None">
<path d="
M 983.00 193.00 
C 980.76 197.48 978.14 200.84 975.00 205.00
C 978.94 200.70 982.47 197.41 985.00 192.00
C 984.72 192.37 983.36 192.54 983.00 193.00 Z"/>
</g>
<g fill="#999999" fill-opacity="1.00" stroke="None">
<path d="
M 599.00 204.00 
C 602.38 200.87 606.39 198.09 610.00 195.00
C 606.84 196.87 602.74 200.26 599.00 204.00 Z"/>
</g>
<g fill="#707070" fill-opacity="1.00" stroke="None">
<path d="
M 585.00 218.00 
C 589.48 213.52 594.32 208.33 599.00 204.00
C 594.41 208.59 589.29 212.99 585.00 218.00 Z"/>
</g>
<g fill="#727272" fill-opacity="1.00" stroke="None">
<path d="
M 963.00 218.00 
C 966.50 215.01 970.17 211.75 973.00 208.00
C 970.02 211.26 966.19 214.81 963.00 218.00 Z"/>
</g>
<g fill="#6F6F6F" fill-opacity="1.00" stroke="None">
<path d="
M 202.00 225.00 
C 202.00 220.01 201.81 214.98 202.00 210.00
C 201.32 214.77 201.54 220.21 202.00 225.00 Z"/>
</g>
<g fill="#C0C0C0" fill-opacity="1.00" stroke="None">
<path d="
M 655.00 257.00 
C 655.96 256.48 656.80 255.81 658.00 256.00
C 656.27 259.11 652.67 260.92 651.00 264.00
C 654.18 261.20 658.73 258.13 660.00 254.00
C 657.61 253.72 656.42 255.72 655.00 257.00 Z"/>
</g>
<g fill="#636363" fill-opacity="1.00" stroke="None">
<path d="
M 655.00 257.00 
C 654.39 257.55 653.62 258.46 653.00 259.00
C 652.67 259.64 651.34 262.43 650.00 264.00
C 650.00 264.00 650.60 264.20 651.00 264.00
C 652.67 260.92 656.27 259.11 658.00 256.00
C 656.80 255.81 655.96 256.48 655.00 257.00 Z"/>
</g>
<g fill="#FFFFFF" fill-opacity="1.00" stroke="None">
<path d="
M 599.00 295.00 
C 592.44 294.87 585.54 294.48 579.00 295.00
C 571.81 295.57 566.59 298.19 560.00 300.00
C 560.13 301.64 561.79 304.92 563.00 306.00
C 573.82 311.87 593.91 304.53 606.00 308.00 C 618.09 311.47 628.61 314.97 636.25 325.75 C 643.89 336.53 640.29 353.39 632.75 362.75 C 625.21 372.12 618.22 379.71 607.77 385.77 C 597.32 391.83 586.03 396.71 573.93 399.93 C 561.83 403.14 544.10 403.55 531.78 401.22 C 519.45 398.89 508.37 395.03 501.23 383.77 C 494.09 372.51 499.91 357.62 506.77 347.77 C 513.63 337.92 522.60 331.83 532.08 325.08 C 541.55 318.32 555.36 314.96 561.00 306.00
C 558.19 304.84 558.05 302.23 554.00 302.00
C 547.29 303.84 538.54 309.13 534.77 302.23 C 531.00 295.33 526.74 292.53 521.75 287.25 C 516.76 281.97 512.22 278.88 507.00 274.00
C 506.71 273.94 505.91 274.76 506.00 275.00
C 514.58 287.12 524.95 298.76 531.00 312.00
C 519.99 313.42 513.73 331.70 502.70 327.31 C 491.66 322.91 478.09 318.59 466.00 317.00
C 474.26 326.47 488.58 330.23 500.00 336.00
C 495.71 340.75 494.07 349.05 489.78 353.78 C 485.48 358.50 489.93 372.81 484.00 375.00 C 478.07 377.19 467.31 377.14 461.02 380.02 C 454.74 382.91 447.93 384.63 441.68 387.68 C 435.43 390.72 429.22 393.12 423.00 396.00
C 420.88 397.22 418.70 401.43 420.00 400.00
C 442.28 393.85 464.57 387.69 487.00 382.00
C 490.31 392.73 498.42 402.49 509.00 407.00
C 507.32 413.00 500.65 417.50 500.00 424.00
C 501.07 422.61 510.89 413.28 514.00 412.00
C 524.38 411.36 536.04 418.16 548.00 416.00
C 545.21 439.08 540.49 463.54 540.00 486.00
C 541.72 478.29 543.61 469.57 546.22 462.22 C 548.84 454.88 549.82 445.86 553.00 439.00 C 556.18 432.15 552.47 417.95 560.00 416.00 C 567.52 414.05 577.82 414.25 584.93 410.93 C 592.03 407.61 599.79 406.44 606.31 402.31 C 612.82 398.17 619.37 396.52 624.75 390.75 C 630.14 384.99 635.98 384.12 640.08 376.08 C 644.18 368.04 649.21 366.00 659.00 366.00
C 663.33 366.00 667.67 366.00 672.00 366.00
C 675.10 366.00 678.64 366.77 681.00 367.00
C 686.67 367.00 692.33 367.00 698.00 367.00
C 701.10 367.00 704.64 367.77 707.00 368.00
C 709.85 367.50 713.90 369.08 716.00 367.00
C 698.07 362.91 679.89 358.38 661.00 358.00
C 657.67 357.93 654.33 358.05 651.00 358.00
C 651.11 357.00 650.53 355.27 652.00 355.00
C 651.96 352.28 652.85 349.82 653.00 347.00
C 653.23 342.84 653.43 338.14 653.00 334.00
C 649.82 319.63 640.90 308.00 627.00 302.00
C 624.74 301.03 622.14 300.46 620.00 299.00
C 620.16 296.36 623.02 294.38 625.00 293.00
C 633.23 283.37 641.70 273.71 650.00 264.00
C 651.34 262.43 652.67 259.64 653.00 259.00
C 638.83 269.10 622.36 280.23 614.00 296.00
C 608.73 296.21 604.21 295.10 599.00 295.00 Z"/>
</g>
<g fill="#7E7E7E" fill-opacity="1.00" stroke="None">
<path d="
M 506.00 275.00 
C 505.91 274.76 506.71 273.94 507.00 274.00
C 506.24 271.79 503.85 270.97 502.00 270.00
C 501.62 272.59 504.62 273.51 506.00 275.00 Z"/>
</g>
<g fill="#757575" fill-opacity="1.00" stroke="None">
<path d="
M 799.00 289.00 
C 802.96 288.79 807.04 288.92 811.00 289.00
C 807.12 288.53 802.99 288.35 799.00 289.00 Z"/>
</g>
<g fill="#6C6C6C" fill-opacity="1.00" stroke="None">
<path d="
M 627.00 302.00 
C 625.66 300.38 623.11 299.40 621.00 299.00
C 621.27 296.67 623.48 294.78 625.00 293.00
C 623.02 294.38 620.16 296.36 620.00 299.00
C 622.14 300.46 624.74 301.03 627.00 302.00 Z"/>
</g>
<g fill="#848484" fill-opacity="1.00" stroke="None">
<path d="
M 579.00 295.00 
C 585.54 294.48 592.44 294.87 599.00 295.00
C 592.78 294.25 585.33 293.78 579.00 295.00 Z"/>
</g>
<g fill="#575757" fill-opacity="1.00" stroke="None">
<path d="
M 554.00 302.00 
C 558.05 302.23 558.19 304.84 561.00 306.00
C 560.78 305.91 562.26 305.60 563.00 306.00
C 561.79 304.92 560.13 301.64 560.00 300.00
C 558.02 300.54 555.64 301.55 554.00 302.00 Z"/>
</g>
<g fill="#C7C7C7" fill-opacity="1.00" stroke="None">
<path d="
M 386.00 304.00 
C 391.69 303.49 398.08 304.30 403.00 305.00
C 406.09 305.12 409.17 305.08 412.00 306.00
C 407.39 303.80 390.46 299.39 386.00 304.00 Z"/>
</g>
<g fill="#696969" fill-opacity="1.00" stroke="None">
<path d="
M 386.00 305.00 
C 391.65 305.00 397.35 304.78 403.00 305.00
C 398.08 304.30 391.69 303.49 386.00 304.00
C 386.00 304.00 385.96 305.00 386.00 305.00 Z"/>
</g>
<g fill="#D6D6D6" fill-opacity="1.00" stroke="None">
<path d="
M 561.00 306.00 
C 555.36 314.96 541.55 318.32 532.08 325.08 C 522.60 331.83 513.63 337.92 506.77 347.77 C 499.91 357.62 494.09 372.51 501.23 383.77 C 508.37 395.03 519.45 398.89 531.78 401.22 C 544.10 403.55 561.83 403.14 573.93 399.93 C 586.03 396.71 597.32 391.83 607.77 385.77 C 618.22 379.71 625.21 372.12 632.75 362.75 C 640.29 353.39 643.89 336.53 636.25 325.75 C 628.61 314.97 618.09 311.47 606.00 308.00 C 593.91 304.53 573.82 311.87 563.00 306.00
C 562.26 305.60 560.78 305.91 561.00 306.00 Z"/>
</g>
<g fill="#666666" fill-opacity="1.00" stroke="None">
<path d="
M 653.00 347.00 
C 653.69 342.76 653.96 338.35 653.00 334.00
C 653.43 338.14 653.23 342.84 653.00 347.00 Z"/>
</g>
<g fill="#898989" fill-opacity="1.00" stroke="None">
<path d="
M 661.00 358.00 
C 658.52 357.70 653.00 357.38 652.00 355.00
C 650.53 355.27 651.11 357.00 651.00 358.00
C 654.33 358.05 657.67 357.93 661.00 358.00 Z"/>
</g>
<g fill="#A7A7A7" fill-opacity="1.00" stroke="None">
<path d="
M 922.00 381.00 
C 922.23 379.71 922.92 377.93 923.00 376.00
C 923.15 372.36 923.07 368.64 923.00 365.00
C 922.95 362.37 922.45 360.04 922.00 358.00
C 922.76 365.38 922.28 373.58 922.00 381.00 Z"/>
</g>
<g fill="#5C5C5C" fill-opacity="1.00" stroke="None">
<path d="
M 923.00 376.00 
C 923.52 372.41 923.44 368.63 923.00 365.00
C 923.07 368.64 923.15 372.36 923.00 376.00 Z"/>
</g>
<g fill="#898989" fill-opacity="1.00" stroke="None">
<path d="
M 672.00 367.00 
C 671.96 367.00 672.00 366.00 672.00 366.00
C 667.67 366.00 663.33 366.00 659.00 366.00
C 662.66 366.35 667.59 367.00 672.00 367.00 Z"/>
</g>
<g fill="#626262" fill-opacity="1.00" stroke="None">
<path d="
M 672.00 367.00 
C 675.00 367.00 678.00 367.00 681.00 367.00
C 678.64 366.77 675.10 366.00 672.00 366.00
C 672.00 366.00 671.96 367.00 672.00 367.00 Z"/>
</g>
<g fill="#7B7B7B" fill-opacity="1.00" stroke="None">
<path d="
M 707.00 368.00 
C 704.64 367.77 701.10 367.00 698.00 367.00
C 700.36 367.23 703.90 368.00 707.00 368.00 Z"/>
</g>
<g fill="#919191" fill-opacity="1.00" stroke="None">
<path d="
M 420.00 400.00 
C 418.70 401.43 420.88 397.22 423.00 396.00
C 419.27 398.04 414.29 398.79 412.00 403.00
C 415.29 403.91 417.55 400.87 420.00 400.00 Z"/>
</g>
<g fill="#747474" fill-opacity="1.00" stroke="None">
<path d="
M 500.00 424.00 
C 499.52 428.75 503.62 421.75 506.25 420.25 C 508.87 418.75 511.42 413.31 514.00 412.00
C 510.89 413.28 501.07 422.61 500.00 424.00 Z"/>
</g>
<g fill="#777777" fill-opacity="1.00" stroke="None">
<path d="
M 144.00 424.00 
C 148.01 421.14 151.58 417.42 155.00 414.00
C 151.12 417.07 147.80 420.82 144.00 424.00 Z"/>
</g>
<g fill="#676767" fill-opacity="1.00" stroke="None">
<path d="
M 629.00 432.00 
C 628.64 429.31 628.67 425.69 629.00 423.00
C 628.20 426.23 628.15 428.71 629.00 432.00 Z"/>
</g>
<g fill="#878787" fill-opacity="1.00" stroke="None">
<path d="
M 153.00 434.00 
C 157.19 430.88 161.09 427.37 165.00 424.00
C 160.60 427.02 156.77 430.23 153.00 434.00 Z"/>
</g>
<g fill="#6A6A6A" fill-opacity="1.00" stroke="None">
<path d="
M 99.00 466.00 
C 105.87 459.13 113.08 451.92 120.00 445.00
C 112.66 451.27 105.31 458.61 99.00 466.00 Z"/>
</g>
<g fill="#717171" fill-opacity="1.00" stroke="None">
<path d="
M 128.00 456.00 
C 131.13 453.33 133.91 449.69 137.00 447.00
C 133.59 449.53 130.99 453.01 128.00 456.00 Z"/>
</g>
<g fill="#8B8B8B" fill-opacity="1.00" stroke="None">
<path d="
M 470.00 469.00 
C 472.67 469.00 475.33 469.00 478.00 469.00
C 477.46 471.37 477.50 473.64 477.00 476.00
C 478.88 474.12 479.13 470.79 479.00 468.00
C 475.87 467.39 472.47 468.39 470.00 469.00 Z"/>
</g>
<g fill="#7F7F7F" fill-opacity="1.00" stroke="None">
<path d="
M 667.00 487.00 
C 667.00 485.33 667.00 483.67 667.00 482.00
C 669.59 482.29 671.65 483.98 674.00 485.00
C 672.44 482.44 668.92 481.13 666.00 481.00
C 665.08 483.04 666.83 485.65 667.00 487.00 Z"/>
</g>
<g fill="#C4C4C4" fill-opacity="1.00" stroke="None">
<path d="
M 746.00 486.00 
C 747.00 486.00 748.00 486.00 749.00 486.00
C 755.67 486.00 762.33 486.00 769.00 486.00
C 770.33 486.00 771.67 486.06 773.00 486.00
C 764.81 485.76 754.28 485.65 746.00 486.00 Z"/>
</g>
<g fill="#606060" fill-opacity="1.00" stroke="None">
<path d="
M 769.00 486.00 
C 762.33 486.00 755.67 486.00 749.00 486.00
C 755.21 487.36 762.76 486.85 769.00 486.00 Z"/>
</g>
<g fill="#747474" fill-opacity="1.00" stroke="None">
<path d="
M 653.00 515.00 
C 653.39 510.98 653.40 506.09 653.00 502.00
C 653.00 506.33 653.00 510.67 653.00 515.00 Z"/>
</g>
<g fill="#7A7A7A" fill-opacity="1.00" stroke="None">
<path d="
M 772.00 503.00 
C 766.35 503.22 760.65 503.00 755.00 503.00
C 760.33 503.52 766.56 503.78 772.00 503.00 Z"/>
</g>
<g fill="#737373" fill-opacity="1.00" stroke="None">
<path d="
M 142.00 649.00 
C 135.33 649.00 128.67 649.00 122.00 649.00
C 128.23 649.60 135.71 649.61 142.00 649.00 Z"/>
</g>
<g fill="#727272" fill-opacity="1.00" stroke="None">
<path d="
M 353.00 665.00 
C 353.23 662.66 353.94 659.06 354.00 656.00
C 353.71 658.43 353.00 661.85 353.00 665.00 Z"/>
</g>
<g fill="#8D8D8D" fill-opacity="1.00" stroke="None">
<path d="
M 145.00 664.00 
C 138.73 664.24 132.27 664.24 126.00 664.00
C 131.98 664.85 138.95 664.86 145.00 664.00 Z"/>
</g>
<g fill="#8E8E8E" fill-opacity="1.00" stroke="None">
<path d="
M 371.00 684.00 
C 371.00 677.33 371.00 670.67 371.00 664.00
C 370.40 670.23 370.39 677.71 371.00 684.00 Z"/>
</g>
<g fill="#7C7C7C" fill-opacity="1.00" stroke="None">
<path d="
M 534.00 749.00 
C 539.61 744.20 545.16 738.67 550.00 733.00
C 544.80 738.20 539.25 743.75 534.00 749.00 Z"/>
</g>
<g fill="#838383" fill-opacity="1.00" stroke="None">
<path d="
M 413.00 768.00 
C 408.77 764.31 403.87 759.18 400.00 755.00
C 403.61 759.57 408.27 764.48 413.00 768.00 Z"/>
</g>
</svg>