<svg xmlns="http://www.w3.org/2000/svg" xmlns:v="https://svgstorm.com"
viewBox = "0 0 1024 848"
width="1024"
height="848">
<g fill="#F2F2F2" fill-opacity="1.00" stroke="None">
<path d="
M 0.00 848.00 
L 1024.00 848.00
L 1024.00 0.00
L 0.00 0.00
L 0.00 848.00
M 375.00 91.00 
C 399.60 92.34 420.02 102.16 442.00 111.00
C 445.61 112.45 448.06 115.00 451.00 117.00
C 501.38 144.19 544.22 193.24 562.00 247.00
C 570.38 239.14 575.22 226.15 585.00 218.00
C 589.25 213.02 594.07 208.21 599.00 204.00
C 635.53 172.78 670.88 147.57 716.23 131.23 C 761.58 114.89 816.69 92.00 867.00 92.00
C 877.06 91.03 889.01 91.03 899.00 92.00
C 930.08 92.00 956.76 104.21 979.75 126.25 C 1002.75 148.28 991.61 186.22 973.00 208.00
C 969.93 211.60 966.55 214.97 963.00 218.00
C 929.28 246.82 889.56 263.57 848.00 276.00
C 870.50 285.31 896.05 292.27 915.00 310.00
C 919.21 313.60 923.72 317.59 927.00 322.00
C 957.34 362.80 940.36 419.14 902.75 449.75 C 865.14 480.37 820.65 501.14 772.00 503.00
C 766.56 503.78 760.33 503.52 755.00 503.00
C 726.14 503.00 699.68 496.08 674.00 485.00
C 671.65 483.98 669.59 482.29 667.00 482.00
C 667.00 483.67 667.00 485.33 667.00 487.00
C 669.51 519.69 663.75 555.57 654.02 585.02 C 644.30 614.48 629.96 634.29 618.00 662.00
C 615.37 668.10 611.28 674.18 607.00 679.00
C 601.86 684.78 598.81 691.65 595.00 698.00
C 592.54 702.10 590.04 705.48 587.00 709.00
C 562.44 737.45 545.04 766.48 510.75 785.75 C 476.47 805.03 426.05 806.17 396.75 775.25 C 367.45 744.33 353.00 707.52 353.00 665.00
C 353.00 661.85 353.71 658.43 354.00 656.00
C 354.67 622.73 369.56 591.79 384.00 563.00
C 326.84 598.66 267.86 634.31 203.00 653.00
C 200.23 653.90 197.12 655.17 194.00 656.00
C 178.23 660.21 161.69 663.36 145.00 664.00
C 138.95 664.86 131.98 664.85 126.00 664.00
C 94.90 662.81 61.24 655.50 41.25 628.75 C 21.25 602.01 33.05 561.37 47.25 535.25 C 61.46 509.14 79.53 488.78 99.00 466.00
C 105.31 458.61 112.66 451.27 120.00 445.00
C 128.14 438.04 135.45 430.11 144.00 424.00
C 147.80 420.82 151.12 417.07 155.00 414.00
C 171.44 401.02 187.35 390.42 204.70 378.70 C 222.04 366.97 240.18 356.30 259.08 347.08 C 277.97 337.85 300.14 328.35 318.00 320.00
C 270.94 306.27 204.92 283.90 202.00 225.00
C 201.54 220.21 201.32 214.77 202.00 210.00
C 202.96 184.82 217.94 161.79 234.00 143.00
C 237.66 138.71 241.76 134.62 246.00 131.00
C 276.04 105.33 316.27 91.00 356.00 91.00
C 362.01 90.42 369.00 90.03 375.00 91.00 Z"/>
</g>
<g fill="#7E7F80" fill-opacity="1.00" stroke="None">
<path d="
M 356.00 91.00 
C 362.30 91.00 368.71 90.66 375.00 91.00
C 369.00 90.03 362.01 90.42 356.00 91.00 Z"/>
</g>
<g fill="#000101" fill-opacity="1.00" stroke="None">
<path d="
M 246.00 131.00 
C 242.08 134.92 237.87 139.13 234.00 143.00
C 217.94 161.79 202.96 184.82 202.00 210.00
C 201.81 214.98 202.00 220.01 202.00 225.00
C 204.92 283.90 270.94 306.27 318.00 320.00
C 300.14 328.35 277.97 337.85 259.08 347.08 C 240.18 356.30 222.04 366.97 204.70 378.70 C 187.35 390.42 171.44 401.02 155.00 414.00
C 151.58 417.42 148.01 421.14 144.00 424.00
C 135.45 430.11 128.14 438.04 120.00 445.00
C 113.08 451.92 105.87 459.13 99.00 466.00
C 79.53 488.78 61.46 509.14 47.25 535.25 C 33.05 561.37 21.25 602.01 41.25 628.75 C 61.24 655.50 94.90 662.81 126.00 664.00
C 132.27 664.24 138.73 664.24 145.00 664.00
C 161.69 663.36 178.23 660.21 194.00 656.00
C 196.86 654.94 199.72 653.75 203.00 653.00
C 267.86 634.31 326.84 598.66 384.00 563.00
C 369.56 591.79 354.67 622.73 354.00 656.00
C 353.94 659.06 353.23 662.66 353.00 665.00
C 353.00 707.52 367.45 744.33 396.75 775.25 C 426.05 806.17 476.47 805.03 510.75 785.75 C 545.04 766.48 562.44 737.45 587.00 709.00
C 589.39 705.02 592.16 701.70 595.00 698.00
C 598.81 691.65 601.86 684.78 607.00 679.00
C 610.68 673.85 615.10 667.31 618.00 662.00
C 629.96 634.29 644.30 614.48 654.02 585.02 C 663.75 555.57 669.51 519.69 667.00 487.00
C 666.90 485.73 665.03 482.98 666.00 481.00
C 668.92 481.13 672.44 482.44 674.00 485.00
C 699.68 496.08 726.14 503.00 755.00 503.00
C 760.65 503.00 766.35 503.22 772.00 503.00
C 820.65 501.14 865.14 480.37 902.75 449.75 C 940.36 419.14 957.34 362.80 927.00 322.00
C 923.49 317.98 918.76 313.76 915.00 310.00
C 896.05 292.27 870.50 285.31 848.00 276.00
C 889.56 263.57 929.28 246.82 963.00 218.00
C 966.25 214.75 969.79 211.21 973.00 208.00
C 991.61 186.22 1002.75 148.28 979.75 126.25 C 956.76 104.21 930.08 92.00 899.00 92.00
C 888.33 92.00 877.67 92.00 867.00 92.00
C 816.69 92.00 761.58 114.89 716.23 131.23 C 670.88 147.57 635.53 172.78 599.00 204.00
C 594.41 208.59 589.54 213.46 585.00 218.00
C 575.22 226.15 570.38 239.14 562.00 247.00
C 544.22 193.24 501.38 144.19 451.00 117.00
C 447.90 115.33 444.82 112.44 442.00 111.00
C 420.02 102.16 399.60 92.34 375.00 91.00
C 368.71 90.66 362.30 91.00 356.00 91.00
C 316.27 91.00 276.04 105.33 246.00 131.00
M 971.00 157.00 
C 971.63 160.50 971.67 163.55 971.00 167.00
C 969.13 190.53 946.39 205.07 928.77 218.77 C 911.15 232.47 888.04 242.92 865.93 249.93 C 843.82 256.93 817.32 267.07 793.93 271.93 C 770.53 276.78 737.22 271.76 723.00 295.00
C 747.62 305.12 774.49 292.65 799.00 289.00
C 802.99 288.35 807.12 288.53 811.00 289.00
C 852.25 289.82 911.93 312.56 922.00 358.00
C 922.45 360.04 922.95 362.37 923.00 365.00
C 923.44 368.63 923.52 372.41 923.00 376.00
C 922.92 377.93 922.23 379.71 922.00 381.00
C 921.16 403.09 903.59 424.83 887.00 439.00
C 883.69 442.31 880.90 445.43 877.00 448.00
C 846.38 468.17 810.22 484.40 773.00 486.00
C 771.67 486.06 770.33 486.00 769.00 486.00
C 762.76 486.85 755.21 487.36 749.00 486.00
C 748.00 486.00 747.00 486.00 746.00 486.00
C 732.58 486.06 718.05 480.96 705.33 478.67 C 692.61 476.38 682.65 468.46 671.25 463.75 C 659.86 459.03 654.89 444.22 651.69 434.31 C 648.50 424.39 633.38 406.52 629.00 422.00
C 628.55 424.93 628.63 429.05 629.00 432.00
C 631.74 443.04 638.54 450.03 644.30 459.70 C 650.07 469.36 652.04 483.76 653.00 495.00
C 653.20 497.30 653.00 499.70 653.00 502.00
C 653.39 506.08 653.38 510.99 653.00 515.00
C 653.00 517.32 653.12 519.68 653.00 522.00
C 651.03 561.79 632.60 605.52 613.23 639.23 C 593.86 672.94 575.21 703.49 550.00 733.00
C 545.45 738.32 540.27 743.50 535.00 748.00
C 517.00 763.39 504.03 773.74 480.98 780.98 C 457.92 788.21 432.30 782.35 413.00 768.00
C 408.27 764.48 403.61 759.57 400.00 755.00
C 383.72 734.38 371.00 707.79 371.00 681.00
C 370.48 675.65 370.49 669.28 371.00 664.00
C 371.00 643.98 378.17 622.21 384.32 604.32 C 390.47 586.43 401.25 571.58 409.75 555.75 C 418.26 539.93 431.62 529.03 442.75 515.75 C 453.88 502.47 473.49 492.66 477.00 476.00
C 477.50 473.64 477.46 471.37 478.00 469.00
C 475.33 469.00 472.67 469.00 470.00 469.00
C 439.91 476.45 426.89 510.40 402.30 528.30 C 377.72 546.21 353.90 564.95 325.92 578.92 C 297.95 592.90 273.27 611.47 242.77 622.77 C 212.27 634.07 176.34 649.00 142.00 649.00
C 135.68 649.61 128.30 650.02 122.00 649.00
C 93.88 647.47 54.82 637.99 46.07 606.93 C 37.33 575.86 55.32 542.81 72.25 519.25 C 89.18 495.70 105.69 475.06 128.00 456.00
C 133.30 450.71 138.21 445.57 144.00 441.00
C 146.96 438.67 150.35 436.65 153.00 434.00
C 156.77 430.23 160.60 427.02 165.00 424.00
C 177.18 415.65 187.18 406.57 199.70 398.70 C 212.21 390.82 223.70 382.29 236.75 374.75 C 249.80 367.20 262.39 361.47 276.08 354.08 C 289.77 346.68 304.28 342.39 319.02 336.02 C 333.76 329.66 348.76 327.17 364.68 321.68 C 380.60 316.19 404.52 321.78 421.00 317.00
C 425.55 315.00 418.22 309.28 416.00 308.00
C 414.57 307.34 413.17 306.59 412.00 306.00
C 409.22 305.03 406.05 305.12 403.00 305.00
C 397.35 304.78 391.65 305.00 386.00 305.00
C 376.56 305.00 366.87 306.48 358.00 309.00 C 349.13 311.52 339.69 309.40 330.93 307.07 C 322.16 304.75 314.09 302.01 305.78 299.22 C 297.46 296.44 289.72 293.56 281.92 290.08 C 274.12 286.59 266.86 283.77 259.75 279.25 C 252.65 274.73 245.79 272.52 239.75 266.25 C 233.72 259.98 228.59 256.02 224.70 248.30 C 220.80 240.58 217.20 232.20 217.00 223.00 C 216.81 213.79 218.02 202.16 220.93 193.93 C 223.84 185.70 227.39 178.91 231.77 171.77 C 236.15 164.63 240.19 158.98 245.75 152.75 C 251.32 146.52 256.63 142.02 263.25 137.25 C 269.87 132.47 276.09 128.41 283.69 124.69 C 291.30 120.98 298.58 117.57 307.07 115.07 C 315.57 112.57 325.00 111.02 334.02 109.02 C 343.05 107.03 354.30 107.10 364.00 107.00 C 373.70 106.90 384.87 108.07 393.68 110.32 C 402.49 112.58 410.37 115.11 418.23 118.77 C 426.08 122.44 433.46 125.08 440.69 129.31 C 447.93 133.53 454.45 137.22 461.08 141.92 C 467.71 146.62 473.86 150.96 480.23 155.77 C 486.60 160.58 491.70 165.93 497.75 171.25 C 503.80 176.56 508.38 182.37 513.75 188.25 C 519.13 194.13 523.62 199.93 528.75 206.25 C 533.88 212.57 536.58 219.48 541.92 226.08 C 547.25 232.68 548.10 240.12 553.92 247.08 C 559.75 254.04 556.27 264.57 559.93 272.07 C 563.59 279.57 568.90 261.70 571.77 256.77 C 574.64 251.84 580.18 241.91 584.75 236.75 C 589.32 231.60 595.17 224.71 600.75 219.75 C 606.34 214.79 612.41 210.33 618.25 205.25 C 624.08 200.16 630.83 195.84 637.08 191.08 C 643.33 186.32 649.80 181.67 656.70 177.70 C 663.59 173.72 669.92 168.84 677.23 165.23 C 684.54 161.62 692.12 158.13 699.70 154.69 C 707.27 151.26 714.84 147.73 722.74 144.74 C 730.65 141.76 739.08 139.35 747.22 136.22 C 755.37 133.09 764.46 131.46 773.02 129.02 C 781.59 126.59 790.25 124.26 799.07 122.07 C 807.90 119.89 816.82 117.49 826.00 116.00 C 835.19 114.52 844.43 111.45 854.02 111.02 C 863.61 110.60 876.39 109.27 886.00 110.00 C 895.61 110.73 906.33 111.54 915.02 113.98 C 923.72 116.41 931.58 118.96 939.22 122.78 C 946.87 126.59 952.93 130.30 959.25 135.75 C 965.56 141.21 970.38 147.85 970.99 156.01 Z"/>
</g>
<g fill="#5A5A5B" fill-opacity="1.00" stroke="None">
<path d="
M 867.00 92.00 
C 877.67 92.00 888.33 92.00 899.00 92.00
C 889.01 91.03 877.06 91.03 867.00 92.00 Z"/>
</g>
<g fill="#FDFDFD" fill-opacity="1.00" stroke="None">
<path d="
M 386.00 305.00 
C 385.96 305.00 386.00 304.00 386.00 304.00
C 390.41 299.45 407.45 303.72 412.00 306.00
C 413.17 306.59 414.57 307.34 416.00 308.00
C 419.32 309.53 424.09 312.74 424.00 317.00
C 423.00 317.00 422.00 317.00 421.00 317.00
C 404.52 321.78 380.60 316.19 364.68 321.68 C 348.76 327.17 333.76 329.66 319.02 336.02 C 304.28 342.39 289.77 346.68 276.08 354.08 C 262.39 361.47 249.80 367.20 236.75 374.75 C 223.70 382.29 212.21 390.82 199.70 398.70 C 187.18 406.57 177.18 415.65 165.00 424.00
C 161.09 427.37 157.19 430.88 153.00 434.00
C 150.35 436.65 146.96 438.67 144.00 441.00
C 138.63 445.96 133.58 451.23 128.00 456.00
C 105.69 475.06 89.18 495.70 72.25 519.25 C 55.32 542.81 37.33 575.86 46.07 606.93 C 54.82 637.99 93.88 647.47 122.00 649.00
C 128.62 649.36 135.37 649.00 142.00 649.00
C 176.34 649.00 212.27 634.07 242.77 622.77 C 273.27 611.47 297.95 592.90 325.92 578.92 C 353.90 564.95 377.72 546.21 402.30 528.30 C 426.89 510.40 439.91 476.45 470.00 469.00
C 472.47 468.39 475.87 467.39 479.00 468.00
C 479.13 470.79 478.88 474.12 477.00 476.00
C 473.49 492.66 453.88 502.47 442.75 515.75 C 431.62 529.03 418.26 539.93 409.75 555.75 C 401.25 571.58 390.47 586.43 384.32 604.32 C 378.17 622.21 371.00 643.98 371.00 664.00
C 371.00 669.67 371.00 675.33 371.00 681.00
C 371.00 707.79 383.72 734.38 400.00 755.00
C 403.87 759.18 408.77 764.31 413.00 768.00
C 432.30 782.35 457.92 788.21 480.98 780.98 C 504.03 773.74 517.00 763.39 535.00 748.00
C 539.92 743.08 545.13 737.87 550.00 733.00
C 575.21 703.49 593.86 672.94 613.23 639.23 C 632.60 605.52 651.03 561.79 653.00 522.00
C 652.65 513.79 652.93 503.09 653.00 495.00
C 652.04 483.76 650.07 469.36 644.30 459.70 C 638.54 450.03 631.74 443.04 629.00 432.00
C 628.13 428.49 628.02 425.48 629.00 422.00
C 633.38 406.52 648.50 424.39 651.69 434.31 C 654.89 444.22 659.86 459.03 671.25 463.75 C 682.65 468.46 692.61 476.38 705.33 478.67 C 718.05 480.96 732.58 486.06 746.00 486.00
C 754.28 485.65 764.81 485.76 773.00 486.00
C 810.22 484.40 846.38 468.17 877.00 448.00
C 880.35 445.19 883.61 441.89 887.00 439.00
C 903.59 424.83 921.16 403.09 922.00 381.00
C 922.28 373.58 922.76 365.38 922.00 358.00
C 911.93 312.56 852.25 289.82 811.00 289.00
C 807.04 288.92 802.96 288.79 799.00 289.00
C 774.49 292.65 747.62 305.12 723.00 295.00
C 737.22 271.76 770.53 276.78 793.93 271.93 C 817.32 267.07 843.82 256.93 865.93 249.93 C 888.04 242.92 911.15 232.47 928.77 218.77 C 946.39 205.07 969.13 190.53 971.00 167.00
C 971.25 163.79 971.22 160.21 971.00 157.00
C 970.38 147.85 965.56 141.21 959.25 135.75 C 952.93 130.30 946.87 126.59 939.22 122.78 C 931.58 118.96 923.72 116.41 915.02 113.98 C 906.33 111.54 895.61 110.73 886.00 110.00 C 876.39 109.27 863.61 110.60 854.02 111.02 C 844.43 111.45 835.19 114.52 826.00 116.00 C 816.82 117.49 807.90 119.89 799.07 122.07 C 790.25 124.26 781.59 126.59 773.02 129.02 C 764.46 131.46 755.37 133.09 747.22 136.22 C 739.08 139.35 730.65 141.76 722.74 144.74 C 714.84 147.73 707.27 151.26 699.70 154.69 C 692.12 158.13 684.54 161.62 677.23 165.23 C 669.92 168.84 663.59 173.72 656.70 177.70 C 649.80 181.67 643.33 186.32 637.08 191.08 C 630.83 195.84 624.08 200.16 618.25 205.25 C 612.41 210.33 606.34 214.79 600.75 219.75 C 595.17 224.71 589.32 231.60 584.75 236.75 C 580.18 241.91 574.64 251.84 571.77 256.77 C 568.90 261.70 563.59 279.57 559.93 272.07 C 556.27 264.57 559.75 254.04 553.92 247.08 C 548.10 240.12 547.25 232.68 541.92 226.08 C 536.58 219.48 533.88 212.57 528.75 206.25 C 523.62 199.93 519.13 194.13 513.75 188.25 C 508.38 182.37 503.80 176.56 497.75 171.25 C 491.70 165.93 486.60 160.58 480.23 155.77 C 473.86 150.96 467.71 146.62 461.08 141.92 C 454.45 137.22 447.93 133.53 440.69 129.31 C 433.46 125.08 426.08 122.44 418.23 118.77 C 410.37 115.11 402.49 112.58 393.68 110.32 C 384.87 108.07 373.70 106.90 364.00 107.00 C 354.30 107.10 343.05 107.03 334.02 109.02 C 325.00 111.02 315.57 112.57 307.07 115.07 C 298.58 117.57 291.30 120.98 283.69 124.69 C 276.09 128.41 269.87 132.47 263.25 137.25 C 256.63 142.02 251.32 146.52 245.75 152.75 C 240.19 158.98 236.15 164.63 231.77 171.77 C 227.39 178.91 223.84 185.70 220.93 193.93 C 218.02 202.16 216.81 213.79 217.00 223.00 C 217.20 232.20 220.80 240.58 224.70 248.30 C 228.59 256.02 233.72 259.98 239.75 266.25 C 245.79 272.52 252.65 274.73 259.75 279.25 C 266.86 283.77 274.12 286.59 281.92 290.08 C 289.72 293.56 297.46 296.44 305.78 299.22 C 314.09 302.01 322.16 304.75 330.93 307.07 C 339.69 309.40 349.13 311.52 358.00 309.00 C 366.87 306.48 376.56 305.00 386.00 305.00
M 651.00 264.00 
C 650.60 264.20 650.00 264.00 650.00 264.00
C 640.17 275.50 629.04 286.62 621.00 299.00
C 635.44 304.16 648.79 316.17 653.00 331.00
C 654.65 334.79 656.86 342.12 654.00 346.00
C 653.78 346.30 653.04 346.79 653.00 347.00
C 652.78 351.01 651.73 354.15 651.00 358.00
C 673.61 357.28 694.82 361.99 716.00 367.00
C 705.17 369.26 692.77 365.67 681.00 367.00
C 678.00 367.00 675.00 367.00 672.00 367.00
C 667.67 367.00 663.33 367.00 659.00 367.00
C 654.64 367.00 648.26 365.66 645.00 369.00
C 640.65 373.44 638.26 378.69 633.25 383.25 C 628.24 387.81 623.91 391.57 618.30 395.30 C 612.70 399.04 606.98 401.62 600.92 404.92 C 594.87 408.22 587.04 408.59 580.99 411.99 C 574.94 415.40 563.46 412.29 558.00 416.00
C 556.48 417.45 556.38 423.38 556.00 425.00
C 551.23 445.52 545.08 465.57 540.00 486.00
C 540.65 463.58 545.21 439.08 548.00 416.00
C 536.07 417.96 524.34 411.29 514.00 412.00
C 511.41 413.37 508.87 418.72 506.25 420.25 C 503.62 421.78 499.52 428.73 500.00 424.00
C 500.65 417.50 507.32 413.00 509.00 407.00
C 498.38 402.53 490.48 392.63 487.00 382.00
C 464.56 387.66 442.25 393.75 420.00 400.00
C 417.55 400.87 415.29 403.91 412.00 403.00
C 414.29 398.79 419.27 398.04 423.00 396.00
C 429.22 393.12 435.43 390.72 441.68 387.68 C 447.93 384.63 454.74 382.91 461.02 380.02 C 467.31 377.14 478.07 377.19 484.00 375.00 C 489.93 372.81 485.48 358.50 489.78 353.78 C 494.07 349.05 495.71 340.75 500.00 336.00
C 488.58 330.23 474.26 326.47 466.00 317.00
C 478.01 318.83 491.65 322.88 502.69 327.31 C 513.74 331.73 519.98 313.40 531.00 312.00
C 525.11 298.68 514.49 287.18 506.00 275.00
C 504.62 273.51 501.62 272.59 502.00 270.00
C 503.85 270.97 506.24 271.79 507.00 274.00
C 516.27 282.65 527.96 291.72 534.77 302.23 C 541.58 312.74 544.16 302.57 553.00 302.00
C 555.37 301.28 558.33 299.83 561.00 299.00
C 566.81 297.19 572.63 295.51 579.00 295.00
C 585.33 293.78 592.78 294.25 599.00 295.00
C 604.21 295.10 608.73 296.21 614.00 296.00
C 622.36 280.23 638.89 269.20 653.00 259.00
C 653.67 258.36 654.33 257.60 655.00 257.00
C 656.42 255.72 657.61 253.72 660.00 254.00
C 658.73 258.13 654.18 261.20 651.00 264.00 Z"/>
</g>
<g fill="#717172" fill-opacity="1.00" stroke="None">
<path d="
M 451.00 117.00 
C 448.06 115.00 445.61 112.45 442.00 111.00
C 444.82 112.44 447.90 115.33 451.00 117.00 Z"/>
</g>
<g fill="#706F72" fill-opacity="1.00" stroke="None">
<path d="
M 234.00 143.00 
C 237.87 139.13 242.08 134.92 246.00 131.00
C 241.76 134.62 237.66 138.71 234.00 143.00 Z"/>
</g>
<g fill="#8B8989" fill-opacity="1.00" stroke="None">
<path d="
M 971.00 167.00 
C 971.67 163.55 971.63 160.50 971.00 157.00
C 971.22 160.21 971.25 163.79 971.00 167.00 Z"/>
</g>
<g fill="#707072" fill-opacity="1.00" stroke="None">
<path d="
M 585.00 218.00 
C 589.54 213.46 594.41 208.59 599.00 204.00
C 594.07 208.21 589.25 213.02 585.00 218.00 Z"/>
</g>
<g fill="#737176" fill-opacity="1.00" stroke="None">
<path d="
M 963.00 218.00 
C 966.55 214.97 969.93 211.60 973.00 208.00
C 969.79 211.21 966.25 214.75 963.00 218.00 Z"/>
</g>
<g fill="#6F6E70" fill-opacity="1.00" stroke="None">
<path d="
M 202.00 225.00 
C 202.00 220.01 201.81 214.98 202.00 210.00
C 201.32 214.77 201.54 220.21 202.00 225.00 Z"/>
</g>
<g fill="#BFC0C0" fill-opacity="1.00" stroke="None">
<path d="
M 655.00 257.00 
C 655.96 256.48 656.80 255.81 658.00 256.00
C 656.27 259.11 652.67 260.92 651.00 264.00
C 654.18 261.20 658.73 258.13 660.00 254.00
C 657.61 253.72 656.42 255.72 655.00 257.00 Z"/>
</g>
<g fill="#616363" fill-opacity="1.00" stroke="None">
<path d="
M 655.00 257.00 
C 654.33 257.60 653.67 258.36 653.00 259.00
C 652.67 259.64 651.34 262.43 650.00 264.00
C 650.00 264.00 650.60 264.20 651.00 264.00
C 652.67 260.92 656.27 259.11 658.00 256.00
C 656.80 255.81 655.96 256.48 655.00 257.00 Z"/>
</g>
<g fill="#010102" fill-opacity="1.00" stroke="None">
<path d="
M 599.00 295.00 
C 592.44 294.87 585.54 294.48 579.00 295.00
C 572.63 295.51 566.81 297.19 561.00 299.00
C 560.49 299.24 560.33 300.68 560.00 301.00
C 560.10 303.19 564.34 305.62 565.00 308.00
C 587.64 307.99 610.00 303.87 629.00 318.00
C 632.36 320.50 635.16 323.35 637.00 327.00
C 638.51 329.98 639.25 332.78 640.00 336.00
C 640.76 339.27 640.51 341.85 640.00 345.00
C 639.52 353.81 634.34 361.23 629.00 368.00
C 626.38 371.32 623.27 374.42 620.00 377.00
C 598.90 393.66 574.68 401.82 548.00 403.00 C 521.32 404.18 488.14 387.87 501.00 357.00
C 503.40 351.23 506.66 347.34 511.00 343.00
C 517.85 334.98 524.81 331.07 532.70 324.70 C 540.58 318.32 551.94 316.44 560.00 311.00
C 561.13 309.70 560.57 308.47 561.00 307.00
C 560.94 306.61 557.46 302.15 557.00 302.00
C 555.69 302.17 554.32 301.91 553.00 302.00
C 544.16 302.57 541.58 312.74 534.77 302.23 C 527.96 291.72 516.27 282.65 507.00 274.00
C 506.71 273.94 505.91 274.76 506.00 275.00
C 514.49 287.18 525.11 298.68 531.00 312.00
C 519.98 313.40 513.74 331.73 502.69 327.31 C 491.65 322.88 478.01 318.83 466.00 317.00
C 474.26 326.47 488.58 330.23 500.00 336.00
C 495.71 340.75 494.07 349.05 489.78 353.78 C 485.48 358.50 489.93 372.81 484.00 375.00 C 478.07 377.19 467.31 377.14 461.02 380.02 C 454.74 382.91 447.93 384.63 441.68 387.68 C 435.43 390.72 429.22 393.12 423.00 396.00
C 420.88 397.22 418.70 401.43 420.00 400.00
C 442.25 393.75 464.56 387.66 487.00 382.00
C 490.48 392.63 498.38 402.53 509.00 407.00
C 507.32 413.00 500.65 417.50 500.00 424.00
C 501.13 422.53 510.82 413.39 514.00 412.00
C 524.34 411.29 536.07 417.96 548.00 416.00
C 545.21 439.08 540.65 463.58 540.00 486.00
C 545.08 465.57 551.23 445.52 556.00 425.00
C 556.39 421.54 554.83 418.15 558.00 416.00
C 563.46 412.29 574.94 415.40 580.99 411.99 C 587.04 408.59 594.87 408.22 600.92 404.92 C 606.98 401.62 612.70 399.04 618.30 395.30 C 623.91 391.57 628.24 387.81 633.25 383.25 C 638.26 378.69 640.65 373.44 645.00 369.00
C 645.25 368.74 645.00 368.00 645.00 368.00
C 646.51 362.22 656.92 365.70 660.00 366.00
C 664.00 366.00 668.00 366.00 672.00 366.00
C 675.10 366.00 678.64 366.77 681.00 367.00
C 692.77 365.67 705.17 369.26 716.00 367.00
C 694.82 361.99 673.61 357.28 651.00 358.00
C 651.73 354.15 652.78 351.01 653.00 347.00
C 653.23 342.70 653.00 338.31 653.00 334.00
C 653.00 333.14 653.22 331.83 653.00 331.00
C 648.79 316.17 635.44 304.16 621.00 299.00
C 629.04 286.62 640.17 275.50 650.00 264.00
C 651.34 262.43 652.67 259.64 653.00 259.00
C 638.89 269.20 622.36 280.23 614.00 296.00
C 608.73 296.21 604.21 295.10 599.00 295.00 Z"/>
</g>
<g fill="#7D7E7E" fill-opacity="1.00" stroke="None">
<path d="
M 506.00 275.00 
C 505.91 274.76 506.71 273.94 507.00 274.00
C 506.24 271.79 503.85 270.97 502.00 270.00
C 501.62 272.59 504.62 273.51 506.00 275.00 Z"/>
</g>
<g fill="#767574" fill-opacity="1.00" stroke="None">
<path d="
M 799.00 289.00 
C 802.96 288.79 807.04 288.92 811.00 289.00
C 807.12 288.53 802.99 288.35 799.00 289.00 Z"/>
</g>
<g fill="#848482" fill-opacity="1.00" stroke="None">
<path d="
M 579.00 295.00 
C 585.54 294.48 592.44 294.87 599.00 295.00
C 592.78 294.25 585.33 293.78 579.00 295.00 Z"/>
</g>
<g fill="#686462" fill-opacity="1.00" stroke="None">
<path d="
M 553.00 302.00 
C 554.32 301.91 555.69 302.17 557.00 302.00
C 557.89 301.88 559.30 301.67 560.00 301.00
C 560.33 300.68 560.49 299.24 561.00 299.00
C 558.33 299.83 555.37 301.28 553.00 302.00 Z"/>
</g>
<g fill="#494325" fill-opacity="1.00" stroke="None">
<path d="
M 557.00 302.00 
C 557.46 302.15 560.94 306.61 561.00 307.00
C 561.28 306.05 560.41 304.23 562.00 304.00
C 562.73 305.34 563.34 306.64 564.00 308.00
C 564.37 308.22 565.00 308.00 565.00 308.00
C 564.34 305.62 560.10 303.19 560.00 301.00
C 559.30 301.67 557.89 301.88 557.00 302.00 Z"/>
</g>
<g fill="#C6C7C8" fill-opacity="1.00" stroke="None">
<path d="
M 386.00 304.00 
C 391.69 303.49 398.08 304.30 403.00 305.00
C 406.05 305.12 409.22 305.03 412.00 306.00
C 407.45 303.72 390.41 299.45 386.00 304.00 Z"/>
</g>
<g fill="#68686A" fill-opacity="1.00" stroke="None">
<path d="
M 386.00 305.00 
C 391.65 305.00 397.35 304.78 403.00 305.00
C 398.08 304.30 391.69 303.49 386.00 304.00
C 386.00 304.00 385.96 305.00 386.00 305.00 Z"/>
</g>
<g fill="#9B8E46" fill-opacity="1.00" stroke="None">
<path d="
M 561.00 307.00 
C 560.57 308.47 561.13 309.70 560.00 311.00
C 562.01 309.64 561.56 306.58 564.00 308.00
C 563.34 306.64 562.73 305.34 562.00 304.00
C 560.41 304.23 561.28 306.05 561.00 307.00 Z"/>
</g>
<g fill="#F9D434" fill-opacity="1.00" stroke="None">
<path d="
M 560.00 311.00 
C 551.94 316.44 540.58 318.32 532.70 324.70 C 524.81 331.07 517.85 334.98 511.00 343.00
C 507.39 347.23 503.43 352.41 501.00 357.00
C 488.14 387.87 521.32 404.18 548.00 403.00 C 574.68 401.82 598.90 393.66 620.00 377.00
C 622.89 374.33 626.38 370.84 629.00 368.00
C 634.34 361.23 639.52 353.81 640.00 345.00
C 640.16 342.13 640.32 338.85 640.00 336.00
C 639.25 332.78 638.51 329.98 637.00 327.00
C 635.30 324.33 631.51 320.19 629.00 318.00
C 610.00 303.87 587.64 307.99 565.00 308.00
C 565.00 308.00 564.37 308.22 564.00 308.00
C 561.56 306.58 562.01 309.64 560.00 311.00 Z"/>
</g>
<g fill="#7C7B79" fill-opacity="1.00" stroke="None">
<path d="
M 421.00 317.00 
C 422.00 317.00 423.00 317.00 424.00 317.00
C 424.09 312.74 419.32 309.53 416.00 308.00
C 418.22 309.28 425.55 315.00 421.00 317.00 Z"/>
</g>
<g fill="#676667" fill-opacity="1.00" stroke="None">
<path d="
M 927.00 322.00 
C 923.72 317.59 919.21 313.60 915.00 310.00
C 918.76 313.76 923.49 317.98 927.00 322.00 Z"/>
</g>
<g fill="#846E1E" fill-opacity="1.00" stroke="None">
<path d="
M 637.00 327.00 
C 635.16 323.35 632.36 320.50 629.00 318.00
C 631.51 320.19 635.30 324.33 637.00 327.00 Z"/>
</g>
<g fill="#CECACB" fill-opacity="1.00" stroke="None">
<path d="
M 653.00 334.00 
C 653.74 337.37 654.58 341.95 654.00 346.00
C 656.86 342.12 654.65 334.79 653.00 331.00
C 653.22 331.83 653.00 333.14 653.00 334.00 Z"/>
</g>
<g fill="#696665" fill-opacity="1.00" stroke="None">
<path d="
M 653.00 347.00 
C 653.04 346.79 653.78 346.30 654.00 346.00
C 654.58 341.95 653.74 337.37 653.00 334.00
C 653.00 338.31 653.23 342.70 653.00 347.00 Z"/>
</g>
<g fill="#614919" fill-opacity="1.00" stroke="None">
<path d="
M 640.00 345.00 
C 640.51 341.85 640.76 339.27 640.00 336.00
C 640.32 338.85 640.16 342.13 640.00 345.00 Z"/>
</g>
<g fill="#80641D" fill-opacity="1.00" stroke="None">
<path d="
M 501.00 357.00 
C 503.43 352.41 507.39 347.23 511.00 343.00
C 506.66 347.34 503.40 351.23 501.00 357.00 Z"/>
</g>
<g fill="#A8A7A7" fill-opacity="1.00" stroke="None">
<path d="
M 922.00 381.00 
C 922.23 379.71 922.92 377.93 923.00 376.00
C 923.15 372.36 923.07 368.64 923.00 365.00
C 922.95 362.37 922.45 360.04 922.00 358.00
C 922.76 365.38 922.28 373.58 922.00 381.00 Z"/>
</g>
<g fill="#4E5050" fill-opacity="1.00" stroke="None">
<path d="
M 645.00 368.00 
C 647.48 364.46 655.25 366.00 659.00 366.00
C 659.50 366.00 660.00 366.00 660.00 366.00
C 656.92 365.70 646.51 362.22 645.00 368.00 Z"/>
</g>
<g fill="#5E5B5C" fill-opacity="1.00" stroke="None">
<path d="
M 923.00 376.00 
C 923.52 372.41 923.44 368.63 923.00 365.00
C 923.07 368.64 923.15 372.36 923.00 376.00 Z"/>
</g>
<g fill="#C2C2C1" fill-opacity="1.00" stroke="None">
<path d="
M 645.00 368.00 
C 645.00 368.00 645.25 368.74 645.00 369.00
C 648.26 365.66 654.64 367.00 659.00 367.00
C 658.96 367.00 659.00 366.00 659.00 366.00
C 655.25 366.00 647.48 364.46 645.00 368.00 Z"/>
</g>
<g fill="#888A87" fill-opacity="1.00" stroke="None">
<path d="
M 659.00 367.00 
C 663.33 367.00 667.67 367.00 672.00 367.00
C 671.96 367.00 672.00 366.00 672.00 366.00
C 668.00 366.00 664.00 366.00 660.00 366.00
C 660.00 366.00 659.50 366.00 659.00 366.00
C 659.00 366.00 658.96 367.00 659.00 367.00 Z"/>
</g>
<g fill="#626360" fill-opacity="1.00" stroke="None">
<path d="
M 672.00 367.00 
C 675.00 367.00 678.00 367.00 681.00 367.00
C 678.64 366.77 675.10 366.00 672.00 366.00
C 672.00 366.00 671.96 367.00 672.00 367.00 Z"/>
</g>
<g fill="#7A661A" fill-opacity="1.00" stroke="None">
<path d="
M 620.00 377.00 
C 623.27 374.42 626.38 371.32 629.00 368.00
C 626.38 370.84 622.89 374.33 620.00 377.00 Z"/>
</g>
<g fill="#909291" fill-opacity="1.00" stroke="None">
<path d="
M 420.00 400.00 
C 418.70 401.43 420.88 397.22 423.00 396.00
C 419.27 398.04 414.29 398.79 412.00 403.00
C 415.29 403.91 417.55 400.87 420.00 400.00 Z"/>
</g>
<g fill="#717475" fill-opacity="1.00" stroke="None">
<path d="
M 500.00 424.00 
C 499.52 428.73 503.62 421.78 506.25 420.25 C 508.87 418.72 511.41 413.37 514.00 412.00
C 510.82 413.39 501.13 422.53 500.00 424.00 Z"/>
</g>
<g fill="#777778" fill-opacity="1.00" stroke="None">
<path d="
M 144.00 424.00 
C 148.01 421.14 151.58 417.42 155.00 414.00
C 151.12 417.07 147.80 420.82 144.00 424.00 Z"/>
</g>
<g fill="#8C8D8F" fill-opacity="1.00" stroke="None">
<path d="
M 556.00 425.00 
C 556.38 423.38 556.48 417.45 558.00 416.00
C 554.83 418.15 556.39 421.54 556.00 425.00 Z"/>
</g>
<g fill="#6B6B6E" fill-opacity="1.00" stroke="None">
<path d="
M 629.00 432.00 
C 628.63 429.05 628.55 424.93 629.00 422.00
C 628.02 425.48 628.13 428.49 629.00 432.00 Z"/>
</g>
<g fill="#82888D" fill-opacity="1.00" stroke="None">
<path d="
M 153.00 434.00 
C 157.19 430.88 161.09 427.37 165.00 424.00
C 160.60 427.02 156.77 430.23 153.00 434.00 Z"/>
</g>
<g fill="#646567" fill-opacity="1.00" stroke="None">
<path d="
M 877.00 448.00 
C 880.90 445.43 883.69 442.31 887.00 439.00
C 883.61 441.89 880.35 445.19 877.00 448.00 Z"/>
</g>
<g fill="#6D7279" fill-opacity="1.00" stroke="None">
<path d="
M 128.00 456.00 
C 133.58 451.23 138.63 445.96 144.00 441.00
C 138.21 445.57 133.30 450.71 128.00 456.00 Z"/>
</g>
<g fill="#686A6C" fill-opacity="1.00" stroke="None">
<path d="
M 99.00 466.00 
C 105.87 459.13 113.08 451.92 120.00 445.00
C 112.66 451.27 105.31 458.61 99.00 466.00 Z"/>
</g>
<g fill="#898B8C" fill-opacity="1.00" stroke="None">
<path d="
M 470.00 469.00 
C 472.67 469.00 475.33 469.00 478.00 469.00
C 477.46 471.37 477.50 473.64 477.00 476.00
C 478.88 474.12 479.13 470.79 479.00 468.00
C 475.87 467.39 472.47 468.39 470.00 469.00 Z"/>
</g>
<g fill="#827E81" fill-opacity="1.00" stroke="None">
<path d="
M 667.00 487.00 
C 667.00 485.33 667.00 483.67 667.00 482.00
C 669.59 482.29 671.65 483.98 674.00 485.00
C 672.44 482.44 668.92 481.13 666.00 481.00
C 665.03 482.98 666.90 485.73 667.00 487.00 Z"/>
</g>
<g fill="#C3C4C4" fill-opacity="1.00" stroke="None">
<path d="
M 746.00 486.00 
C 747.00 486.00 748.00 486.00 749.00 486.00
C 755.67 486.00 762.33 486.00 769.00 486.00
C 770.33 486.00 771.67 486.06 773.00 486.00
C 764.81 485.76 754.28 485.65 746.00 486.00 Z"/>
</g>
<g fill="#616060" fill-opacity="1.00" stroke="None">
<path d="
M 769.00 486.00 
C 762.33 486.00 755.67 486.00 749.00 486.00
C 755.21 487.36 762.76 486.85 769.00 486.00 Z"/>
</g>
<g fill="#C9C9C8" fill-opacity="1.00" stroke="None">
<path d="
M 653.00 522.00 
C 653.12 519.68 653.00 517.32 653.00 515.00
C 653.00 510.67 653.00 506.33 653.00 502.00
C 653.00 499.70 653.20 497.30 653.00 495.00
C 652.93 503.09 652.65 513.79 653.00 522.00 Z"/>
</g>
<g fill="#787276" fill-opacity="1.00" stroke="None">
<path d="
M 653.00 515.00 
C 653.38 510.99 653.39 506.08 653.00 502.00
C 653.00 506.33 653.00 510.67 653.00 515.00 Z"/>
</g>
<g fill="#7B7A7A" fill-opacity="1.00" stroke="None">
<path d="
M 772.00 503.00 
C 766.35 503.22 760.65 503.00 755.00 503.00
C 760.33 503.52 766.56 503.78 772.00 503.00 Z"/>
</g>
<g fill="#737275" fill-opacity="1.00" stroke="None">
<path d="
M 142.00 649.00 
C 135.37 649.00 128.62 649.36 122.00 649.00
C 128.30 650.02 135.68 649.61 142.00 649.00 Z"/>
</g>
<g fill="#6D6B6D" fill-opacity="1.00" stroke="None">
<path d="
M 194.00 656.00 
C 197.12 655.17 200.23 653.90 203.00 653.00
C 199.72 653.75 196.86 654.94 194.00 656.00 Z"/>
</g>
<g fill="#737173" fill-opacity="1.00" stroke="None">
<path d="
M 353.00 665.00 
C 353.23 662.66 353.94 659.06 354.00 656.00
C 353.71 658.43 353.00 661.85 353.00 665.00 Z"/>
</g>
<g fill="#A2A5A7" fill-opacity="1.00" stroke="None">
<path d="
M 607.00 679.00 
C 611.28 674.18 615.37 668.10 618.00 662.00
C 615.10 667.31 610.68 673.85 607.00 679.00 Z"/>
</g>
<g fill="#8D8D8D" fill-opacity="1.00" stroke="None">
<path d="
M 145.00 664.00 
C 138.73 664.24 132.27 664.24 126.00 664.00
C 131.98 664.85 138.95 664.86 145.00 664.00 Z"/>
</g>
<g fill="#949493" fill-opacity="1.00" stroke="None">
<path d="
M 371.00 681.00 
C 371.00 675.33 371.00 669.67 371.00 664.00
C 370.49 669.28 370.48 675.65 371.00 681.00 Z"/>
</g>
<g fill="#939496" fill-opacity="1.00" stroke="None">
<path d="
M 587.00 709.00 
C 590.04 705.48 592.54 702.10 595.00 698.00
C 592.16 701.70 589.39 705.02 587.00 709.00 Z"/>
</g>
<g fill="#7E7F80" fill-opacity="1.00" stroke="None">
<path d="
M 535.00 748.00 
C 540.27 743.50 545.45 738.32 550.00 733.00
C 545.13 737.87 539.92 743.08 535.00 748.00 Z"/>
</g>
<g fill="#838383" fill-opacity="1.00" stroke="None">
<path d="
M 413.00 768.00 
C 408.77 764.31 403.87 759.18 400.00 755.00
C 403.61 759.57 408.27 764.48 413.00 768.00 Z"/>
</g>
</svg>